<?xml version="1.0" standalone="no"?>
<!DOCTYPE svg PUBLIC "-//W3C//DTD SVG 20010904//EN"
 "http://www.w3.org/TR/2001/REC-SVG-20010904/DTD/svg10.dtd">
<svg version="1.0" xmlns="http://www.w3.org/2000/svg"
 width="462.000000pt" height="461.000000pt" viewBox="0 0 462.000000 461.000000"
 preserveAspectRatio="xMidYMid meet">

<g transform="translate(0.000000,461.000000) scale(0.100000,-0.100000)"
fill="#000000" stroke="none">
<path d="M2928 3535 c-324 -62 -582 -300 -679 -625 -21 -72 -23 -98 -29 -585
-8 -566 -7 -561 -78 -705 -28 -57 -58 -97 -127 -166 -78 -79 -103 -98 -185
-137 -120 -57 -181 -71 -300 -71 -115 1 -198 21 -305 73 -237 117 -375 377
-375 707 l0 94 100 0 100 0 0 -107 c0 -136 19 -224 66 -313 121 -231 405 -316
647 -194 67 34 157 127 190 196 58 118 57 103 57 970 l0 798 -675 0 -675 0 0
-285 0 -285 390 0 389 0 3 -499 c3 -490 3 -500 24 -528 27 -36 89 -44 125 -14
l24 19 3 606 2 606 -390 0 -390 0 0 100 0 100 493 -2 492 -3 0 -720 0 -720
-23 -47 c-49 -100 -151 -162 -267 -162 -92 0 -160 29 -220 96 -70 78 -79 117
-79 363 l-1 210 -285 0 -285 0 -3 -175 c-5 -342 53 -558 206 -759 99 -129 267
-242 427 -286 94 -26 282 -31 390 -10 338 63 596 301 688 634 19 71 21 110 27
586 6 495 7 512 29 580 37 115 86 192 180 285 98 97 182 146 306 181 104 28
276 24 375 -10 295 -101 480 -390 480 -752 l0 -100 -97 3 -98 3 -7 140 c-4 95
-13 160 -26 202 -76 242 -338 383 -584 314 -138 -38 -243 -127 -307 -261 l-35
-74 -7 -216 c-10 -283 -11 -696 -2 -1112 l6 -338 674 0 673 0 0 285 0 285
-390 0 -390 0 0 488 c0 444 -2 490 -18 522 -22 44 -78 63 -120 39 -48 -26 -50
-57 -51 -671 l-1 -568 395 0 395 0 0 -100 0 -100 -495 0 -496 0 3 718 3 717
25 50 c91 183 329 227 470 85 80 -79 90 -121 90 -375 l0 -215 285 0 284 0 7
37 c13 67 -4 401 -25 498 -91 429 -394 691 -821 710 -69 3 -131 0 -182 -10z"/>
</g>
</svg>
